<?xml version="1.0" encoding="UTF-8" standalone="no"?>
<!-- Created with Inkscape (http://www.inkscape.org/) -->

<svg
   xmlns:dc="http://purl.org/dc/elements/1.1/"
   xmlns:cc="http://creativecommons.org/ns#"
   xmlns:rdf="http://www.w3.org/1999/02/22-rdf-syntax-ns#"
   xmlns:svg="http://www.w3.org/2000/svg"
   xmlns="http://www.w3.org/2000/svg"
   xmlns:sodipodi="http://sodipodi.sourceforge.net/DTD/sodipodi-0.dtd"
   xmlns:inkscape="http://www.inkscape.org/namespaces/inkscape"
   width="605.91998"
   height="181.9402"
   id="svg2985"
   version="1.1"
   inkscape:version="0.48.1 r9760"
   sodipodi:docname="download.svg">
  <defs
     id="defs2987" />
  <sodipodi:namedview
     pagecolor="#000000"
     bordercolor="#000000"
     borderopacity="1.0"
     inkscape:pageopacity="0"
     inkscape:pageshadow="0"
     inkscape:zoom="0.67587623"
     inkscape:cx="167.6579"
     inkscape:cy="40.972585"
     inkscape:document-units="px"
     inkscape:current-layer="layer1"
     id="namedview2989"
     showgrid="false"
     inkscape:snap-bbox="true"
     inkscape:bbox-paths="false"
     showguides="false"
     inkscape:window-width="1280"
     inkscape:window-height="747"
     inkscape:window-x="0"
     inkscape:window-y="26"
     inkscape:window-maximized="1"
     fit-margin-top="0"
     fit-margin-left="0"
     fit-margin-right="0"
     fit-margin-bottom="0" />
  <metadata
     id="metadata2991">
    <rdf:RDF>
      <cc:Work
         rdf:about="">
        <dc:format>image/svg+xml</dc:format>
        <dc:type
           rdf:resource="http://purl.org/dc/dcmitype/StillImage" />
        <dc:title></dc:title>
      </cc:Work>
    </rdf:RDF>
  </metadata>
  <g
     inkscape:label="Layer 1"
     inkscape:groupmode="layer"
     id="layer1"
     transform="translate(0,-802.36224)">
    <rect
       style="fill:#000000"
       id="rect3008"
       width="605.91821"
       height="181.9402"
       x="0"
       y="802.36224"
       ry="32.59206" />
    <g
       transform="matrix(1.7496613,0,0,1.8453197,-143.0129,690.94442)"
       style="font-size:40px;font-style:normal;font-variant:normal;font-weight:normal;font-stretch:normal;line-height:125%;letter-spacing:0px;word-spacing:0px;opacity:0.98999999;fill:#ffffff;fill-opacity:1;stroke:none;font-family:Ubuntu;-inkscape-font-specification:Ubuntu"
       id="flowRoot3012">
      <path
         d="m 223.41875,105.61451 c -3e-5,2.40001 -0.37336,4.49334 -1.12,6.28 -0.74669,1.76 -1.80002,3.22667 -3.16,4.4 -1.36002,1.14666 -2.98669,2.01333 -4.88,2.6 -1.89335,0.56 -3.97335,0.84 -6.24,0.84 -1.12001,0 -2.36001,-0.0533 -3.72,-0.16 -1.33334,-0.08 -2.54667,-0.25334 -3.64,-0.52 l 0,-26.880004 c 1.09333,-0.266639 2.30666,-0.439972 3.64,-0.52 1.35999,-0.106639 2.59999,-0.159972 3.72,-0.16 2.26665,2.8e-5 4.34665,0.293361 6.24,0.88 1.89331,0.560027 3.51998,1.426692 4.88,2.6 1.35998,1.14669 2.41331,2.613355 3.16,4.4 0.74664,1.760014 1.11997,3.840014 1.12,6.240004 m -15.08,10.72 c 3.67999,0 6.42665,-0.93333 8.24,-2.8 1.81331,-1.89333 2.71998,-4.53333 2.72,-7.92 -2e-5,-3.38665 -0.90669,-6.013317 -2.72,-7.880004 -1.81335,-1.89331 -4.56001,-2.839975 -8.24,-2.84 -1.09334,2.5e-5 -1.94668,0.01336 -2.56,0.04 -0.58667,0.02669 -1.00001,0.05336 -1.24,0.08 l 0,21.200004 c 0.23999,0.0267 0.65333,0.0533 1.24,0.08 0.61332,0.0267 1.46666,0.04 2.56,0.04"
         id="path4043"
         inkscape:connector-curvature="0" />
      <path
         d="m 247.29437,109.09451 c -2e-5,1.65334 -0.24002,3.14667 -0.72,4.48 -0.48002,1.33333 -1.16001,2.48 -2.04,3.44 -0.85335,0.96 -1.88001,1.70666 -3.08,2.24 -1.20001,0.50666 -2.50667,0.76 -3.92,0.76 -1.41334,0 -2.72,-0.25334 -3.92,-0.76 -1.2,-0.53334 -2.24,-1.28 -3.12,-2.24 -0.85333,-0.96 -1.52,-2.10667 -2,-3.44 -0.48,-1.33333 -0.72,-2.82666 -0.72,-4.48 0,-1.62666 0.24,-3.10666 0.72,-4.44 0.48,-1.35999 1.14667,-2.51999 2,-3.48 0.88,-0.95998 1.92,-1.693317 3.12,-2.200004 1.2,-0.533312 2.50666,-0.799979 3.92,-0.8 1.41333,2.1e-5 2.71999,0.266688 3.92,0.8 1.19999,0.506687 2.22665,1.240024 3.08,2.200004 0.87999,0.96001 1.55998,2.12001 2.04,3.48 0.47998,1.33334 0.71998,2.81334 0.72,4.44 m -3.88,0 c -1e-5,-2.34666 -0.53335,-4.19999 -1.6,-5.56 -1.04001,-1.38665 -2.46668,-2.07999 -4.28,-2.08 -1.81334,1e-5 -3.25334,0.69335 -4.32,2.08 -1.04,1.36001 -1.56,3.21334 -1.56,5.56 0,2.34667 0.52,4.21334 1.56,5.6 1.06666,1.36 2.50666,2.04 4.32,2.04 1.81332,0 3.23999,-0.68 4.28,-2.04 1.06665,-1.38666 1.59999,-3.25333 1.6,-5.6"
         id="path4045"
         inkscape:connector-curvature="0" />
      <path
         d="m 268.98125,119.49451 c -0.74669,-1.92 -1.54669,-4.10667 -2.4,-6.56 -0.82668,-2.47999 -1.58668,-5.05333 -2.28,-7.72 -0.69335,2.66667 -1.45335,5.24001 -2.28,7.72 -0.82668,2.45333 -1.61334,4.64 -2.36,6.56 l -3.24,0 c -1.22667,-2.74667 -2.42667,-5.88 -3.6,-9.4 -1.17334,-3.51999 -2.28,-7.31999 -3.32,-11.400004 l 4,0 c 0.26666,1.253353 0.58666,2.613354 0.96,4.080004 0.37333,1.46668 0.75999,2.93334 1.16,4.4 0.42666,1.46667 0.86666,2.88001 1.32,4.24 0.45332,1.36 0.87999,2.54667 1.28,3.56 0.45332,-1.25333 0.89332,-2.57333 1.32,-3.96 0.45332,-1.41333 0.87999,-2.82666 1.28,-4.24 0.39999,-1.43999 0.77332,-2.83999 1.12,-4.2 0.37332,-1.38665 0.69332,-2.679984 0.96,-3.880004 l 3.08,0 c 0.23998,1.20002 0.53332,2.493354 0.88,3.880004 0.34665,1.36001 0.71998,2.76001 1.12,4.2 0.39998,1.41334 0.81331,2.82667 1.24,4.24 0.45331,1.38667 0.90665,2.70667 1.36,3.96 0.39998,-1.01333 0.81331,-2.2 1.24,-3.56 0.45331,-1.35999 0.89331,-2.77333 1.32,-4.24 0.42664,-1.46666 0.82664,-2.93332 1.2,-4.4 0.37331,-1.46665 0.69331,-2.826651 0.96,-4.080004 l 3.84,0 c -1.04003,4.080014 -2.14669,7.880014 -3.32,11.400004 -1.17336,3.52 -2.37336,6.65333 -3.6,9.4 l -3.24,0"
         id="path4047"
         inkscape:connector-curvature="0" />
      <path
         d="m 283.075,99.294506 c 0.85333,-0.213313 1.98666,-0.439979 3.4,-0.68 1.41333,-0.239979 3.03999,-0.359979 4.88,-0.36 1.65332,2.1e-5 3.02665,0.240021 4.12,0.72 1.09332,0.453353 1.95998,1.106684 2.6,1.960004 0.66665,0.82668 1.13331,1.82668 1.4,3 0.26665,1.17334 0.39998,2.46668 0.4,3.88 l 0,11.68 -3.72,0 0,-10.88 c -2e-5,-1.27999 -0.0933,-2.37332 -0.28,-3.28 -0.16002,-0.90666 -0.44002,-1.63999 -0.84,-2.2 -0.40001,-0.55999 -0.93335,-0.95999 -1.6,-1.2 -0.66668,-0.26665 -1.49335,-0.39999 -2.48,-0.4 -0.40001,1e-5 -0.81334,0.0134 -1.24,0.04 -0.42668,0.0267 -0.84001,0.0667 -1.24,0.12 -0.37334,0.0267 -0.72001,0.0667 -1.04,0.12 -0.29334,0.0533 -0.50667,0.0934 -0.64,0.12 l 0,17.56 -3.72,0 0,-20.200004"
         id="path4049"
         inkscape:connector-curvature="0" />
      <path
         d="m 312.28375,119.89451 c -2.29334,-0.0533 -3.92001,-0.54667 -4.88,-1.48 -0.96,-0.93334 -1.44,-2.38667 -1.44,-4.36 l 0,-24.960004 3.72,-0.64 0,25.000004 c -10e-6,0.61333 0.0533,1.12 0.16,1.52 0.10666,0.4 0.27999,0.72 0.52,0.96 0.23999,0.24 0.55999,0.42667 0.96,0.56 0.39999,0.10667 0.89332,0.2 1.48,0.28 l -0.52,3.12"
         id="path4051"
         inkscape:connector-curvature="0" />
      <path
         d="m 335.34125,109.09451 c -2e-5,1.65334 -0.24002,3.14667 -0.72,4.48 -0.48002,1.33333 -1.16002,2.48 -2.04,3.44 -0.85335,0.96 -1.88002,1.70666 -3.08,2.24 -1.20001,0.50666 -2.50668,0.76 -3.92,0.76 -1.41334,0 -2.72001,-0.25334 -3.92,-0.76 -1.20001,-0.53334 -2.24001,-1.28 -3.12,-2.24 -0.85334,-0.96 -1.52,-2.10667 -2,-3.44 -0.48,-1.33333 -0.72,-2.82666 -0.72,-4.48 0,-1.62666 0.24,-3.10666 0.72,-4.44 0.48,-1.35999 1.14666,-2.51999 2,-3.48 0.87999,-0.95998 1.91999,-1.693317 3.12,-2.200004 1.19999,-0.533312 2.50666,-0.799979 3.92,-0.8 1.41332,2.1e-5 2.71999,0.266688 3.92,0.8 1.19998,0.506687 2.22665,1.240024 3.08,2.200004 0.87998,0.96001 1.55998,2.12001 2.04,3.48 0.47998,1.33334 0.71998,2.81334 0.72,4.44 m -3.88,0 c -2e-5,-2.34666 -0.53335,-4.19999 -1.6,-5.56 -1.04002,-1.38665 -2.46668,-2.07999 -4.28,-2.08 -1.81334,1e-5 -3.25334,0.69335 -4.32,2.08 -1.04001,1.36001 -1.56001,3.21334 -1.56,5.56 -1e-5,2.34667 0.51999,4.21334 1.56,5.6 1.06666,1.36 2.50666,2.04 4.32,2.04 1.81332,0 3.23998,-0.68 4.28,-2.04 1.06665,-1.38666 1.59998,-3.25333 1.6,-5.6"
         id="path4053"
         inkscape:connector-curvature="0" />
      <path
         d="m 347.615,116.81451 c 0.87999,0 1.65332,-0.0133 2.32,-0.04 0.69332,-0.0533 1.26665,-0.13333 1.72,-0.24 l 0,-6.2 c -0.26668,-0.13333 -0.70668,-0.23999 -1.32,-0.32 -0.58668,-0.10666 -1.30668,-0.15999 -2.16,-0.16 -0.56001,10e-6 -1.16001,0.04 -1.8,0.12 -0.61334,0.08 -1.18667,0.25334 -1.72,0.52 -0.50667,0.24 -0.93334,0.58667 -1.28,1.04 -0.34667,0.42667 -0.52001,1 -0.52,1.72 -1e-5,1.33333 0.42666,2.26667 1.28,2.8 0.85333,0.50667 2.01332,0.76 3.48,0.76 m -0.32,-18.640004 c 1.49332,2.1e-5 2.74665,0.200021 3.76,0.6 1.03999,0.373354 1.86665,0.92002 2.48,1.640004 0.63998,0.69335 1.09332,1.53335 1.36,2.52 0.26665,0.96001 0.39998,2.02668 0.4,3.2 l 0,13 c -0.32002,0.0533 -0.77335,0.13333 -1.36,0.24 -0.56002,0.08 -1.20002,0.16 -1.92,0.24 -0.72001,0.08 -1.50668,0.14666 -2.36,0.2 -0.82668,0.08 -1.65334,0.12 -2.48,0.12 -1.17334,0 -2.25334,-0.12 -3.24,-0.36 -0.98667,-0.24 -1.84,-0.61334 -2.56,-1.12 -0.72,-0.53334 -1.28,-1.22667 -1.68,-2.08 -0.4,-0.85333 -0.6,-1.88 -0.6,-3.08 0,-1.14666 0.22666,-2.13333 0.68,-2.96 0.48,-0.82666 1.12,-1.49333 1.92,-2 0.79999,-0.50666 1.73333,-0.87999 2.8,-1.12 1.06666,-0.23999 2.18666,-0.35999 3.36,-0.36 0.37332,10e-6 0.75999,0.0267 1.16,0.08 0.39999,0.0267 0.77332,0.08 1.12,0.16 0.37332,0.0533 0.69332,0.10668 0.96,0.16 0.26665,0.0533 0.45332,0.0933 0.56,0.12 l 0,-1.04 c -10e-6,-0.61332 -0.0667,-1.21332 -0.2,-1.8 -0.13335,-0.61332 -0.37335,-1.14665 -0.72,-1.6 -0.34668,-0.47999 -0.82668,-0.85332 -1.44,-1.12 -0.58668,-0.29332 -1.36001,-0.43999 -2.32,-0.44 -1.22668,1e-5 -2.30667,0.0934 -3.24,0.28 -0.90667,0.16001 -1.58667,0.33335 -2.04,0.52 l -0.44,-3.080004 c 0.48,-0.213313 1.27999,-0.413312 2.4,-0.6 1.11999,-0.213312 2.33332,-0.319979 3.64,-0.32"
         id="path4055"
         inkscape:connector-curvature="0" />
      <path
         d="m 374.87437,103.09451 c -0.45334,-0.37332 -1.10668,-0.73332 -1.96,-1.08 -0.85334,-0.34665 -1.78667,-0.51999 -2.8,-0.52 -1.06667,10e-6 -1.98667,0.20001 -2.76,0.6 -0.74667,0.37335 -1.36,0.90668 -1.84,1.6 -0.48,0.66668 -0.82667,1.46668 -1.04,2.4 -0.21333,0.93334 -0.32,1.93334 -0.31999,3 -1e-5,2.42667 0.59999,4.30667 1.8,5.64 1.19999,1.30667 2.79998,1.96 4.79999,1.96 1.01332,0 1.85332,-0.04 2.52001,-0.12 0.69331,-0.10667 1.22665,-0.21333 1.59999,-0.32 l 0,-13.16 m 0,-14.000004 3.72001,-0.64 0,30.440004 c -0.85336,0.24 -1.94669,0.48 -3.28001,0.72 -1.33334,0.24 -2.86668,0.36 -4.59999,0.36 -1.60002,0 -3.04001,-0.25334 -4.32,-0.76 -1.28001,-0.50667 -2.37334,-1.22667 -3.28001,-2.16 -0.90667,-0.93333 -1.61333,-2.06667 -2.12,-3.4 -0.48,-1.36 -0.72,-2.88 -0.71999,-4.56 -1e-5,-1.59999 0.19999,-3.06666 0.59999,-4.4 0.42667,-1.33332 1.04,-2.47999 1.84001,-3.44 0.79999,-0.95998 1.77332,-1.706651 2.91999,-2.240004 1.17333,-0.533312 2.50666,-0.799979 4,-0.8 1.19999,2.1e-5 2.25332,0.160021 3.16,0.48 0.93332,0.320021 1.62666,0.626687 2.08,0.92 l 0,-10.52"
         id="path4057"
         inkscape:connector-curvature="0" />
    </g>
    <path
       style="fill:#ffffff"
       inkscape:transform-center-y="5.3084358"
       d="m 78.782128,896.85355 10.603696,-0.0465 14.938136,20.14576 16.55826,-20.14576 8.98357,0.0465 -12.77091,15.92522 -12.77092,15.92523 -12.770914,-15.92523 z"
       id="path3033"
       inkscape:connector-curvature="0"
       sodipodi:nodetypes="ccccccccc" />
    <path
       style="fill:#ffffff"
       inkscape:transform-center-y="5.3084234"
       d="m 78.714635,876.87022 10.603695,-0.0465 14.93814,20.14576 16.55826,-20.14576 8.98356,0.0465 -12.77091,15.92522 -12.77091,15.92523 -12.770917,-15.92523 z"
       id="path3033-7"
       inkscape:connector-curvature="0"
       sodipodi:nodetypes="ccccccccc" />
    <path
       style="fill:#ffffff"
       inkscape:transform-center-y="5.3084226"
       d="m 78.930379,856.05659 10.603696,-0.0465 14.938145,20.14577 16.55826,-20.14577 8.98356,0.0465 -12.77091,15.92523 -12.77091,15.92522 -12.770926,-15.92522 z"
       id="path3033-0"
       inkscape:connector-curvature="0"
       sodipodi:nodetypes="ccccccccc" />
    <flowRoot
       xml:space="preserve"
       id="flowRoot3111"
       style="font-size:40px;font-style:normal;font-weight:normal;line-height:125%;letter-spacing:0px;word-spacing:0px;fill:#000000;fill-opacity:0;stroke:none;font-family:Sans"
       transform="translate(0,802.36218)"><flowRegion
         id="flowRegion3113"><rect
           id="rect3115"
           width="295.03052"
           height="42.894508"
           x="214.47253"
           y="203.96687"
           style="fill:#000000;fill-opacity:0" /></flowRegion><flowPara
         id="flowPara3117">or </flowPara></flowRoot>    <flowRoot
       xml:space="preserve"
       id="flowRoot3979"
       style="font-size:20px;font-style:normal;font-weight:normal;line-height:125%;letter-spacing:0px;word-spacing:0px;fill:#ffffff;fill-opacity:1;stroke:none;font-family:Sans"
       transform="translate(0,802.36218)"><flowRegion
         id="flowRegion3981"><rect
           id="rect3983"
           width="268.87534"
           height="27.201395"
           x="235.39668"
           y="220.70619"
           style="fill:#ffffff;fill-opacity:1" /></flowRegion><flowPara
         id="flowPara3985" /></flowRoot>    <text
       xml:space="preserve"
       style="font-size:20px;font-style:normal;font-weight:normal;line-height:125%;letter-spacing:0px;word-spacing:0px;fill:#000000;fill-opacity:1;stroke:none;font-family:Sans"
       x="239.58151"
       y="228.02963"
       id="text3987"
       sodipodi:linespacing="125%"
       transform="translate(0,802.36218)"><tspan
         sodipodi:role="line"
         id="tspan3989"
         x="239.58151"
         y="228.02963" /></text>
    <flowRoot
       xml:space="preserve"
       id="flowRoot3991"
       style="font-size:20px;font-style:normal;font-weight:normal;line-height:125%;letter-spacing:0px;word-spacing:0px;fill:#ffffff;fill-opacity:1;stroke:none;font-family:Sans"
       transform="translate(0,802.36218)"><flowRegion
         id="flowRegion3993"><rect
           id="rect3995"
           width="296.07672"
           height="26.155188"
           x="227.02702"
           y="218.61377"
           style="fill:#ffffff;fill-opacity:1" /></flowRegion><flowPara
         id="flowPara3997" /></flowRoot>  </g>
</svg>
